<svg width="338" height="338" viewBox="0 0 338 338" fill="none" xmlns="http://www.w3.org/2000/svg">
<circle cx="169" cy="169" r="168.5" stroke="#8248E5"/>
<path d="M217.632 137.533L217.64 137.537L258.732 160.767L258.732 160.767L258.742 160.773C262.47 162.763 264.5 166.404 264.5 170.387V216.501C264.5 220.46 262.136 224.119 258.729 226.122C258.727 226.123 258.726 226.124 258.725 226.125L218.004 248.999C218.003 248.999 218.001 249 218 249.001C214.244 251.005 209.827 250.992 206.449 249.009L206.44 249.004L165.702 226.12L165.693 226.115C161.965 224.125 159.935 220.484 159.935 216.501V200.842L177.71 190.666V205.753C177.71 210.113 180.304 214.081 183.979 216.239L183.988 216.244L205.596 228.379L205.596 228.379L205.606 228.384C209.641 230.538 214.431 230.55 218.136 228.376C218.137 228.375 218.138 228.375 218.139 228.374L239.737 215.898C243.798 213.726 246.017 209.741 246.017 205.406V180.789C246.017 176.428 243.423 172.461 239.748 170.302L239.739 170.298L218.13 158.162L218.121 158.157C214.086 156.003 209.297 155.991 205.592 158.165C205.591 158.166 205.589 158.166 205.588 158.167L177.964 173.765L177.962 173.767L159.19 184.514L159.187 184.515L131.564 200.113C127.808 202.117 123.391 202.104 120.013 200.121L120.013 200.121L120.005 200.116L79.267 177.232L79.2671 177.232L79.2576 177.227C75.5299 175.237 73.5 171.596 73.5 167.613V121.499C73.5 117.516 75.5299 113.875 79.2576 111.885L79.2577 111.885L79.267 111.88L120 88.9988C123.756 86.9955 128.173 87.0077 131.551 88.9914L131.551 88.9914L131.556 88.9943L171.586 111.878L171.592 111.882L171.598 111.885C175.326 113.875 177.356 117.516 177.356 121.499V137.158L159.581 147.334V132.247C159.581 127.887 156.987 123.919 153.312 121.761L153.312 121.761L153.304 121.756L131.695 109.621L131.695 109.621L131.686 109.616C127.651 107.462 122.862 107.45 119.157 109.623L97.5568 121.754C93.4942 123.925 91.2749 127.911 91.2749 132.247V156.865C91.2749 161.225 93.8689 165.193 97.5438 167.351L97.55 167.354L119.513 179.836L119.513 179.837L119.525 179.843C123.56 181.997 128.351 182.009 132.056 179.834C132.057 179.833 132.057 179.833 132.058 179.833L159.678 163.89L159.685 163.885L178.453 153.488L178.453 153.488L178.46 153.484L206.084 137.539C209.84 135.537 214.255 135.549 217.632 137.533Z" stroke="#323233"/>
<circle cx="295" cy="295" r="40.5" fill="#F8F9FA" stroke="#323233"/>
<path d="M284.91 287.51L276 295.02L284.83 303.32" stroke="#673AB7" stroke-miterlimit="10" stroke-linecap="round"/>
<path d="M305.08 287.51L313.98 295.02L305.16 303.32" stroke="#673AB7" stroke-miterlimit="10" stroke-linecap="round"/>
<path d="M289.58 304.79L300.05 286" stroke="#673AB7" stroke-miterlimit="10" stroke-linecap="round"/>
<circle cx="44" cy="43" r="40.5" fill="#F8F9FA" stroke="#323233"/>
<path d="M43.702 67.8099L57.368 47.0408C57.476 46.8766 57.2773 46.6822 57.1131 46.7902L43.702 55.9326" stroke="#673AB7" stroke-miterlimit="10" stroke-linecap="round"/>
<path d="M43.702 67.8099L30.036 47.0408C29.928 46.8766 30.1267 46.6822 30.2909 46.7902L43.7063 55.9283" stroke="#673AB7" stroke-miterlimit="10" stroke-linecap="round"/>
<path d="M43.702 34.3599L29.8545 40.642C29.7119 40.7068 29.6946 40.9012 29.8243 40.9876L43.6977 50.3374" stroke="#323233" stroke-miterlimit="10" stroke-linecap="round"/>
<path d="M43.702 34.3599L57.6013 40.6636C57.7223 40.7198 57.7353 40.8796 57.6273 40.9531L43.702 50.3633" stroke="#323233" stroke-miterlimit="10" stroke-linecap="round"/>
<path d="M43.5594 58.9268V68" stroke="#673AB7" stroke-miterlimit="10" stroke-linecap="round"/>
<path d="M43.5594 17.4491V45.965" stroke="#323233" stroke-miterlimit="10" stroke-linecap="round"/>
<path d="M43.702 17.3497C43.702 17.3152 43.7495 17.2979 43.7711 17.3324L57.8735 40.7889" stroke="#323233" stroke-miterlimit="10" stroke-linecap="round"/>
<path d="M43.702 17.3497C43.702 17.3152 43.6545 17.2979 43.6329 17.3324L29.5305 40.7889" stroke="#323233" stroke-miterlimit="10" stroke-linecap="round"/>
<circle cx="295" cy="43" r="40.5" fill="#F8F9FA" stroke="#323233"/>
<path d="M306.625 58.5206H283.375C282.069 58.5206 281 57.452 281 56.1453V32.896C281 31.5893 282.069 30.5206 283.375 30.5206H306.625C307.931 30.5206 309 31.5893 309 32.896V56.1453C309 57.452 307.931 58.5206 306.625 58.5206Z" stroke="#323233" stroke-miterlimit="10" stroke-linecap="round"/>
<path d="M305.267 30.9873V27.9633C305.267 22.4613 300.805 18 295.303 18H295.159C289.657 18 285.195 22.4613 285.195 27.9633V30.9873" stroke="#323233" stroke-miterlimit="10" stroke-linecap="round"/>
<path d="M299.923 41.9587L299.914 47.4234L295.182 50.144L290.455 47.4094L290.464 41.9447L295.196 39.2194L299.923 41.9587Z" stroke="#673AB7" stroke-miterlimit="10" stroke-linecap="round"/>
<circle cx="44" cy="295" r="40.5" fill="#F8F9FA" stroke="#323233"/>
<path d="M36.9008 294.99L40.6071 298.696L49.972 289.338" stroke="#673AB7" stroke-miterlimit="10" stroke-linecap="round"/>
<path d="M29 286.375V303.117L43.5 311.492L58 303.117V286.375L43.5 278L29 286.375Z" stroke="#673AB7" stroke-miterlimit="10" stroke-linecap="round"/>
</svg>
