<svg id="Layer_1" data-name="Layer 1" xmlns="http://www.w3.org/2000/svg" viewBox="0 0 16.85 23.38"><defs><style>.cls-1{fill:#daa520;}</style></defs><path class="cls-1" d="M15.55,8.06a3.86,3.86,0,1,1-3.86-3.87A3.86,3.86,0,0,1,15.55,8.06Zm.75,4.88,2.51-.47-.61-2.26L20.11,8.7,18.42,6.89l.92-2.46-2.57-.7-.47-2.6-2.57,1L11.86,0,10.12,2,7.48.92,6.91,3.51l-2.6.7.82,2.23L3.26,8.25,5.13,9.86l-.65,2.32,2.43.59.23.94L4.22,21.92l3.22-.83,2.43,2.29,1.82-6.59,2,6.59,2.17-2.09,3.56.15-3.31-7.77ZM6.87,8.06a4.82,4.82,0,1,1,4.82,4.82A4.82,4.82,0,0,1,6.87,8.06ZM9.53,21.73,7.68,19.8l-2.12.75,1.92-5.19,1.2-.56.94-.38L11.11,16Zm6.17-1.36L14.08,21.9l-1.79-6,1.22-1.27,2.41.75,2.36,5.28Z" transform="translate(-3.26 0)"/></svg>